<svg width="465" height="255" viewBox="0 0 465 255" fill="none" xmlns="http://www.w3.org/2000/svg">
<path d="M270.25 80C270.25 101.125 253.125 118.25 232 118.25C210.875 118.25 193.75 101.125 193.75 80C193.75 58.8751 210.875 41.75 232 41.75C253.125 41.75 270.25 58.8751 270.25 80Z" fill="white"/>
<path d="M266.375 80C266.375 98.9848 250.985 114.375 232 114.375C213.015 114.375 197.625 98.9848 197.625 80C197.625 61.0152 213.015 45.625 232 45.625C250.985 45.625 266.375 61.0152 266.375 80Z" fill="white"/>
<path d="M221.451 139.827C220.804 143.498 223.256 147.035 226.974 147.313C236.016 147.988 245.126 146.836 253.753 143.899C264.516 140.235 274.179 133.911 281.846 125.515C289.512 117.119 294.934 106.923 297.607 95.8721C299.75 87.0142 300.072 77.8375 298.58 68.8938C297.967 65.2167 294.222 63.0946 290.625 64.072V64.072C287.027 65.0494 284.948 68.7579 285.47 72.4492C286.42 79.1803 286.094 86.0512 284.486 92.6977C282.347 101.538 278.01 109.696 271.877 116.412C265.743 123.129 258.013 128.188 249.402 131.119C242.929 133.323 236.116 134.27 229.326 133.934C225.603 133.749 222.098 136.156 221.451 139.827V139.827Z" fill="white"/>
<path d="M221.451 20.1729C220.804 16.5016 217.289 14.0171 213.701 15.0277C202.231 18.2582 191.778 24.481 183.445 33.1106C175.111 41.7401 169.257 52.4035 166.429 63.9794C165.544 67.6008 168.15 71.0264 171.841 71.5452V71.5452C175.533 72.0641 178.905 69.4743 179.88 65.8762C182.252 57.1205 186.804 49.066 193.156 42.4884C199.507 35.9109 207.398 31.0812 216.066 28.4044C219.628 27.3044 222.098 23.8442 221.451 20.1729V20.1729Z" fill="white"/>
<path d="M21.888 234.36C20.976 234.36 20.208 234.048 19.584 233.424C18.96 232.8 18.648 232.032 18.648 231.12V189.864H3.96C3.096 189.864 2.376 189.576 1.8 189C1.224 188.424 0.936 187.704 0.936 186.84C0.936 185.976 1.224 185.256 1.8 184.68C2.376 184.056 3.096 183.744 3.96 183.744H39.816C40.68 183.744 41.4 184.056 41.976 184.68C42.6 185.256 42.912 185.976 42.912 186.84C42.912 187.704 42.6 188.424 41.976 189C41.4 189.576 40.68 189.864 39.816 189.864H25.2V231.12C25.2 232.032 24.864 232.8 24.192 233.424C23.568 234.048 22.8 234.36 21.888 234.36ZM48.5139 234.36C47.6019 234.36 46.8339 234.048 46.2099 233.424C45.5859 232.8 45.2739 232.032 45.2739 231.12V200.232C45.2739 199.32 45.5859 198.552 46.2099 197.928C46.8339 197.256 47.6019 196.92 48.5139 196.92C49.4259 196.92 50.1939 197.256 50.8179 197.928C51.4899 198.552 51.8259 199.32 51.8259 200.232V203.328C55.1859 198.816 58.9539 196.56 63.1299 196.56H63.4899C64.4019 196.56 65.1459 196.872 65.7219 197.496C66.3459 198.12 66.6579 198.888 66.6579 199.8C66.6579 200.712 66.3459 201.456 65.7219 202.032C65.0979 202.608 64.3059 202.896 63.3459 202.896H62.9859C60.6819 202.896 58.5699 203.472 56.6499 204.624C54.7299 205.728 53.1219 207.264 51.8259 209.232V231.12C51.8259 232.032 51.4899 232.8 50.8179 233.424C50.1939 234.048 49.4259 234.36 48.5139 234.36ZM82.1964 234.72C80.0844 234.72 78.1164 234.288 76.2924 233.424C74.5164 232.56 73.1004 231.312 72.0444 229.68C70.9884 228 70.4604 226.08 70.4604 223.92C70.4604 220.368 71.8524 217.536 74.6364 215.424C77.4684 213.312 81.5964 212.256 87.0204 212.256H95.7324V211.68C95.7324 208.512 94.9404 206.232 93.3564 204.84C91.8204 203.448 89.3964 202.752 86.0844 202.752C84.2604 202.752 82.6284 202.896 81.1884 203.184C79.7964 203.472 78.2364 203.904 76.5084 204.48C76.1244 204.576 75.8124 204.624 75.5724 204.624C74.8524 204.624 74.2284 204.36 73.7004 203.832C73.1724 203.304 72.9084 202.656 72.9084 201.888C72.9084 200.592 73.5324 199.68 74.7804 199.152C78.8604 197.424 83.0124 196.56 87.2364 196.56C90.5484 196.56 93.3324 197.232 95.5884 198.576C97.8924 199.92 99.5724 201.672 100.628 203.832C101.732 205.944 102.284 208.248 102.284 210.744V231.12C102.284 232.032 101.948 232.8 101.276 233.424C100.652 234.048 99.8844 234.36 98.9724 234.36C98.0604 234.36 97.2924 234.048 96.6684 233.424C96.0444 232.8 95.7324 232.032 95.7324 231.12V229.248C92.1804 232.896 87.6684 234.72 82.1964 234.72ZM84.6444 228.96C86.7564 228.96 88.7964 228.456 90.7644 227.448C92.7324 226.392 94.3884 225.096 95.7324 223.56V217.512H87.8844C80.6364 217.512 77.0124 219.408 77.0124 223.2C77.0124 224.928 77.5884 226.32 78.7404 227.376C79.9404 228.432 81.9084 228.96 84.6444 228.96ZM116.506 234.36C115.594 234.36 114.826 234.048 114.202 233.424C113.578 232.8 113.266 232.032 113.266 231.12V200.232C113.266 199.32 113.578 198.552 114.202 197.928C114.826 197.256 115.594 196.92 116.506 196.92C117.418 196.92 118.186 197.256 118.81 197.928C119.482 198.552 119.818 199.32 119.818 200.232V203.184C121.642 201.168 123.61 199.56 125.722 198.36C127.834 197.16 130.33 196.56 133.21 196.56C135.85 196.56 138.13 197.184 140.05 198.432C142.018 199.68 143.506 201.384 144.514 203.544C145.57 205.704 146.098 208.08 146.098 210.672V231.12C146.098 232.032 145.762 232.8 145.09 233.424C144.466 234.048 143.698 234.36 142.786 234.36C141.874 234.36 141.106 234.048 140.482 233.424C139.858 232.8 139.546 232.032 139.546 231.12V211.392C139.546 205.536 136.906 202.608 131.626 202.608C129.226 202.608 127.066 203.232 125.146 204.48C123.274 205.728 121.498 207.408 119.818 209.52V231.12C119.818 232.032 119.482 232.8 118.81 233.424C118.186 234.048 117.418 234.36 116.506 234.36ZM169.021 234.72C164.221 234.72 159.853 233.64 155.917 231.48C155.101 230.904 154.693 230.112 154.693 229.104C154.693 228.336 154.957 227.664 155.485 227.088C156.013 226.512 156.685 226.224 157.501 226.224C157.933 226.224 158.365 226.32 158.797 226.512C160.333 227.184 161.869 227.712 163.405 228.096C164.941 228.48 166.669 228.672 168.589 228.672C173.917 228.672 176.581 226.968 176.581 223.56C176.581 222.456 175.957 221.616 174.709 221.04C173.509 220.464 171.517 219.816 168.733 219.096C165.901 218.424 163.549 217.728 161.677 217.008C159.853 216.288 158.269 215.208 156.925 213.768C155.629 212.28 154.981 210.336 154.981 207.936C154.981 204.576 156.181 201.84 158.581 199.728C161.029 197.616 164.509 196.56 169.021 196.56C172.717 196.56 176.197 197.16 179.461 198.36C180.133 198.552 180.637 198.912 180.973 199.44C181.357 199.968 181.549 200.52 181.549 201.096C181.549 201.864 181.261 202.536 180.685 203.112C180.157 203.688 179.485 203.976 178.669 203.976C178.429 203.976 178.117 203.928 177.733 203.832C174.949 202.968 172.213 202.536 169.525 202.536C166.933 202.536 164.893 203.016 163.405 203.976C161.965 204.888 161.245 206.088 161.245 207.576C161.245 209.016 161.917 210.072 163.261 210.744C164.605 211.416 166.693 212.064 169.525 212.688C172.357 213.408 174.661 214.128 176.437 214.848C178.213 215.52 179.725 216.6 180.973 218.088C182.269 219.576 182.917 221.568 182.917 224.064C182.917 227.136 181.693 229.68 179.245 231.696C176.845 233.712 173.437 234.72 169.021 234.72ZM207.935 234.36C207.023 234.36 206.255 234.048 205.631 233.424C205.007 232.8 204.695 232.032 204.695 231.12V189.864H190.007C189.143 189.864 188.423 189.576 187.847 189C187.271 188.424 186.983 187.704 186.983 186.84C186.983 185.976 187.271 185.256 187.847 184.68C188.423 184.056 189.143 183.744 190.007 183.744H225.863C226.727 183.744 227.447 184.056 228.023 184.68C228.647 185.256 228.959 185.976 228.959 186.84C228.959 187.704 228.647 188.424 228.023 189C227.447 189.576 226.727 189.864 225.863 189.864H211.247V231.12C211.247 232.032 210.911 232.8 210.239 233.424C209.615 234.048 208.847 234.36 207.935 234.36ZM234.561 234.36C233.649 234.36 232.881 234.048 232.257 233.424C231.633 232.8 231.321 232.032 231.321 231.12V200.232C231.321 199.32 231.633 198.552 232.257 197.928C232.881 197.256 233.649 196.92 234.561 196.92C235.473 196.92 236.241 197.256 236.865 197.928C237.537 198.552 237.873 199.32 237.873 200.232V203.328C241.233 198.816 245.001 196.56 249.177 196.56H249.537C250.449 196.56 251.193 196.872 251.769 197.496C252.393 198.12 252.705 198.888 252.705 199.8C252.705 200.712 252.393 201.456 251.769 202.032C251.145 202.608 250.353 202.896 249.393 202.896H249.033C246.729 202.896 244.617 203.472 242.697 204.624C240.777 205.728 239.169 207.264 237.873 209.232V231.12C237.873 232.032 237.537 232.8 236.865 233.424C236.241 234.048 235.473 234.36 234.561 234.36ZM268.243 234.72C266.131 234.72 264.163 234.288 262.339 233.424C260.563 232.56 259.147 231.312 258.091 229.68C257.035 228 256.507 226.08 256.507 223.92C256.507 220.368 257.899 217.536 260.683 215.424C263.515 213.312 267.643 212.256 273.067 212.256H281.779V211.68C281.779 208.512 280.987 206.232 279.403 204.84C277.867 203.448 275.443 202.752 272.131 202.752C270.307 202.752 268.675 202.896 267.235 203.184C265.843 203.472 264.283 203.904 262.555 204.48C262.171 204.576 261.859 204.624 261.619 204.624C260.899 204.624 260.275 204.36 259.747 203.832C259.219 203.304 258.955 202.656 258.955 201.888C258.955 200.592 259.579 199.68 260.827 199.152C264.907 197.424 269.059 196.56 273.283 196.56C276.595 196.56 279.379 197.232 281.635 198.576C283.939 199.92 285.619 201.672 286.675 203.832C287.779 205.944 288.331 208.248 288.331 210.744V231.12C288.331 232.032 287.995 232.8 287.323 233.424C286.699 234.048 285.931 234.36 285.019 234.36C284.107 234.36 283.339 234.048 282.715 233.424C282.091 232.8 281.779 232.032 281.779 231.12V229.248C278.227 232.896 273.715 234.72 268.243 234.72ZM270.691 228.96C272.803 228.96 274.843 228.456 276.811 227.448C278.779 226.392 280.435 225.096 281.779 223.56V217.512H273.931C266.683 217.512 263.059 219.408 263.059 223.2C263.059 224.928 263.635 226.32 264.787 227.376C265.987 228.432 267.955 228.96 270.691 228.96ZM316.305 234.72C312.849 234.72 309.657 233.952 306.729 232.416C303.801 230.88 301.449 228.672 299.673 225.792C297.945 222.912 297.081 219.528 297.081 215.64C297.081 211.752 297.945 208.368 299.673 205.488C301.449 202.608 303.801 200.4 306.729 198.864C309.657 197.328 312.849 196.56 316.305 196.56C318.849 196.56 321.033 196.896 322.857 197.568C324.729 198.192 326.457 199.008 328.041 200.016C329.001 200.64 329.481 201.48 329.481 202.536C329.481 203.256 329.193 203.928 328.617 204.552C328.089 205.128 327.465 205.416 326.745 205.416C326.217 205.416 325.689 205.272 325.161 204.984C323.577 204.168 322.209 203.592 321.057 203.256C319.953 202.872 318.561 202.68 316.881 202.68C312.753 202.68 309.513 203.88 307.161 206.28C304.809 208.632 303.633 211.752 303.633 215.64C303.633 219.528 304.809 222.672 307.161 225.072C309.513 227.424 312.753 228.6 316.881 228.6C318.561 228.6 319.953 228.432 321.057 228.096C322.209 227.712 323.577 227.112 325.161 226.296C325.689 226.008 326.217 225.864 326.745 225.864C327.465 225.864 328.089 226.176 328.617 226.8C329.193 227.376 329.481 228.024 329.481 228.744C329.481 229.8 329.001 230.64 328.041 231.264C326.457 232.272 324.729 233.112 322.857 233.784C321.033 234.408 318.849 234.72 316.305 234.72ZM340.944 234.36C340.032 234.36 339.264 234.048 338.64 233.424C338.016 232.8 337.704 232.032 337.704 231.12V184.392C337.704 183.48 338.016 182.712 338.64 182.088C339.264 181.416 340.032 181.08 340.944 181.08C341.856 181.08 342.624 181.416 343.248 182.088C343.92 182.712 344.256 183.48 344.256 184.392V213.84L361.392 198C362.112 197.376 362.832 197.064 363.552 197.064C364.656 197.064 365.448 197.376 365.928 198C366.456 198.624 366.72 199.368 366.72 200.232C366.72 201.048 366.312 201.864 365.496 202.68L355.128 211.968L368.16 229.248C368.64 229.872 368.88 230.52 368.88 231.192C368.88 232.152 368.568 232.92 367.944 233.496C367.32 234.072 366.528 234.36 365.568 234.36C365.088 234.36 364.608 234.24 364.128 234C363.648 233.76 363.24 233.424 362.904 232.992L350.52 216.144L344.256 221.832V231.12C344.256 232.032 343.92 232.8 343.248 233.424C342.624 234.048 341.856 234.36 340.944 234.36ZM380.25 234.216C379.146 234.216 378.186 233.832 377.37 233.064C376.602 232.248 376.218 231.288 376.218 230.184V229.752C376.218 228.648 376.602 227.712 377.37 226.944C378.186 226.128 379.146 225.72 380.25 225.72H380.97C382.074 225.72 383.01 226.128 383.778 226.944C384.594 227.712 385.002 228.648 385.002 229.752V230.184C385.002 231.288 384.594 232.248 383.778 233.064C383.01 233.832 382.074 234.216 380.97 234.216H380.25ZM400.177 234.36C399.265 234.36 398.497 234.048 397.873 233.424C397.249 232.8 396.937 232.032 396.937 231.12V186.696C396.937 185.784 397.249 185.016 397.873 184.392C398.497 183.72 399.265 183.384 400.177 183.384C401.089 183.384 401.857 183.72 402.481 184.392C403.153 185.016 403.489 185.784 403.489 186.696V231.12C403.489 232.032 403.153 232.8 402.481 233.424C401.857 234.048 401.089 234.36 400.177 234.36ZM420.708 234C419.796 234 419.028 233.688 418.404 233.064C417.78 232.44 417.468 231.672 417.468 230.76V187.056C417.468 186.144 417.78 185.376 418.404 184.752C419.028 184.08 419.796 183.744 420.708 183.744H435.18C440.652 183.744 445.284 184.968 449.076 187.416C452.916 189.816 455.796 192.936 457.716 196.776C459.636 200.616 460.596 204.648 460.596 208.872C460.596 213.096 459.636 217.128 457.716 220.968C455.796 224.808 452.916 227.952 449.076 230.4C445.284 232.8 440.652 234 435.18 234H420.708ZM434.388 227.88C438.324 227.88 441.78 227.088 444.756 225.504C447.732 223.872 450.036 221.64 451.668 218.808C453.3 215.928 454.116 212.616 454.116 208.872C454.116 205.128 453.3 201.84 451.668 199.008C450.036 196.128 447.732 193.896 444.756 192.312C441.78 190.68 438.324 189.864 434.388 189.864H424.02V227.88H434.388Z" fill="white"/>
</svg>
