<svg width="160" height="160" viewBox="0 0 160 160" fill="none" xmlns="http://www.w3.org/2000/svg">
<path d="M118.25 80C118.25 101.125 101.125 118.25 80 118.25C58.8751 118.25 41.75 101.125 41.75 80C41.75 58.8751 58.8751 41.75 80 41.75C101.125 41.75 118.25 58.8751 118.25 80Z" fill="white"/>
<path d="M114.375 80C114.375 98.9848 98.9848 114.375 80 114.375C61.0152 114.375 45.625 98.9848 45.625 80C45.625 61.0152 61.0152 45.625 80 45.625C98.9848 45.625 114.375 61.0152 114.375 80Z" fill="white"/>
<path d="M69.4509 139.827C68.8035 143.498 71.2562 147.035 74.9738 147.313C84.016 147.988 93.1258 146.836 101.753 143.899C112.516 140.235 122.179 133.911 129.846 125.515C137.512 117.119 142.934 106.923 145.607 95.8721C147.75 87.0142 148.072 77.8375 146.58 68.8938C145.967 65.2167 142.222 63.0946 138.625 64.072V64.072C135.027 65.0494 132.948 68.7579 133.47 72.4492C134.42 79.1803 134.094 86.0512 132.486 92.6977C130.347 101.538 126.01 109.696 119.877 116.412C113.743 123.129 106.013 128.188 97.4023 131.119C90.9289 133.323 84.1159 134.27 77.3264 133.934C73.603 133.749 70.0982 136.156 69.4509 139.827V139.827Z" fill="white"/>
<path d="M69.4509 20.1729C68.8035 16.5016 65.2891 14.0171 61.7008 15.0277C50.2306 18.2582 39.778 24.481 31.4446 33.1106C23.1111 41.7401 17.2568 52.4035 14.4287 63.9794C13.5439 67.6008 16.1496 71.0264 19.8412 71.5452V71.5452C23.5329 72.0641 26.9047 69.4743 27.8797 65.8762C30.2524 57.1205 34.8038 49.066 41.1557 42.4884C47.5075 35.9109 55.3983 31.0812 64.0658 28.4044C67.6277 27.3044 70.0982 23.8442 69.4509 20.1729V20.1729Z" fill="white"/>
</svg>
