<svg width="641" height="160" viewBox="0 0 641 160" fill="none" xmlns="http://www.w3.org/2000/svg">
<path d="M118.25 80C118.25 101.125 101.125 118.25 80 118.25C58.8751 118.25 41.75 101.125 41.75 80C41.75 58.8751 58.8751 41.75 80 41.75C101.125 41.75 118.25 58.8751 118.25 80Z" fill="white"/>
<path d="M114.375 80C114.375 98.9848 98.9848 114.375 80 114.375C61.0152 114.375 45.625 98.9848 45.625 80C45.625 61.0152 61.0152 45.625 80 45.625C98.9848 45.625 114.375 61.0152 114.375 80Z" fill="white"/>
<path d="M69.4509 139.827C68.8035 143.498 71.2562 147.035 74.9738 147.313C84.016 147.988 93.1258 146.836 101.753 143.899C112.516 140.235 122.179 133.911 129.846 125.515C137.512 117.119 142.934 106.923 145.607 95.8721C147.75 87.0142 148.072 77.8375 146.58 68.8938C145.967 65.2167 142.222 63.0946 138.625 64.072V64.072C135.027 65.0494 132.948 68.7579 133.47 72.4492C134.42 79.1803 134.094 86.0512 132.486 92.6977C130.347 101.538 126.01 109.696 119.877 116.412C113.743 123.129 106.013 128.188 97.4023 131.119C90.9289 133.323 84.1159 134.27 77.3264 133.934C73.603 133.749 70.0982 136.156 69.4509 139.827V139.827Z" fill="white"/>
<path d="M69.4509 20.1729C68.8035 16.5016 65.2891 14.0171 61.7008 15.0277C50.2306 18.2582 39.778 24.481 31.4446 33.1106C23.1111 41.7401 17.2568 52.4035 14.4287 63.9794C13.5439 67.6008 16.1496 71.0264 19.8412 71.5452V71.5452C23.5329 72.0641 26.9047 69.4743 27.8797 65.8762C30.2524 57.1205 34.8038 49.066 41.1557 42.4884C47.5075 35.9109 55.3983 31.0812 64.0658 28.4044C67.6277 27.3044 70.0982 23.8442 69.4509 20.1729V20.1729Z" fill="white"/>
<path d="M197.888 104.36C196.976 104.36 196.208 104.048 195.584 103.424C194.96 102.8 194.648 102.032 194.648 101.12V59.864H179.96C179.096 59.864 178.376 59.576 177.8 59C177.224 58.424 176.936 57.704 176.936 56.84C176.936 55.976 177.224 55.256 177.8 54.68C178.376 54.056 179.096 53.744 179.96 53.744H215.816C216.68 53.744 217.4 54.056 217.976 54.68C218.6 55.256 218.912 55.976 218.912 56.84C218.912 57.704 218.6 58.424 217.976 59C217.4 59.576 216.68 59.864 215.816 59.864H201.2V101.12C201.2 102.032 200.864 102.8 200.192 103.424C199.568 104.048 198.8 104.36 197.888 104.36ZM224.514 104.36C223.602 104.36 222.834 104.048 222.21 103.424C221.586 102.8 221.274 102.032 221.274 101.12V70.232C221.274 69.32 221.586 68.552 222.21 67.928C222.834 67.256 223.602 66.92 224.514 66.92C225.426 66.92 226.194 67.256 226.818 67.928C227.49 68.552 227.826 69.32 227.826 70.232V73.328C231.186 68.816 234.954 66.56 239.13 66.56H239.49C240.402 66.56 241.146 66.872 241.722 67.496C242.346 68.12 242.658 68.888 242.658 69.8C242.658 70.712 242.346 71.456 241.722 72.032C241.098 72.608 240.306 72.896 239.346 72.896H238.986C236.682 72.896 234.57 73.472 232.65 74.624C230.73 75.728 229.122 77.264 227.826 79.232V101.12C227.826 102.032 227.49 102.8 226.818 103.424C226.194 104.048 225.426 104.36 224.514 104.36ZM258.196 104.72C256.084 104.72 254.116 104.288 252.292 103.424C250.516 102.56 249.1 101.312 248.044 99.68C246.988 98 246.46 96.08 246.46 93.92C246.46 90.368 247.852 87.536 250.636 85.424C253.468 83.312 257.596 82.256 263.02 82.256H271.732V81.68C271.732 78.512 270.94 76.232 269.356 74.84C267.82 73.448 265.396 72.752 262.084 72.752C260.26 72.752 258.628 72.896 257.188 73.184C255.796 73.472 254.236 73.904 252.508 74.48C252.124 74.576 251.812 74.624 251.572 74.624C250.852 74.624 250.228 74.36 249.7 73.832C249.172 73.304 248.908 72.656 248.908 71.888C248.908 70.592 249.532 69.68 250.78 69.152C254.86 67.424 259.012 66.56 263.236 66.56C266.548 66.56 269.332 67.232 271.588 68.576C273.892 69.92 275.572 71.672 276.628 73.832C277.732 75.944 278.284 78.248 278.284 80.744V101.12C278.284 102.032 277.948 102.8 277.276 103.424C276.652 104.048 275.884 104.36 274.972 104.36C274.06 104.36 273.292 104.048 272.668 103.424C272.044 102.8 271.732 102.032 271.732 101.12V99.248C268.18 102.896 263.668 104.72 258.196 104.72ZM260.644 98.96C262.756 98.96 264.796 98.456 266.764 97.448C268.732 96.392 270.388 95.096 271.732 93.56V87.512H263.884C256.636 87.512 253.012 89.408 253.012 93.2C253.012 94.928 253.588 96.32 254.74 97.376C255.94 98.432 257.908 98.96 260.644 98.96ZM292.506 104.36C291.594 104.36 290.826 104.048 290.202 103.424C289.578 102.8 289.266 102.032 289.266 101.12V70.232C289.266 69.32 289.578 68.552 290.202 67.928C290.826 67.256 291.594 66.92 292.506 66.92C293.418 66.92 294.186 67.256 294.81 67.928C295.482 68.552 295.818 69.32 295.818 70.232V73.184C297.642 71.168 299.61 69.56 301.722 68.36C303.834 67.16 306.33 66.56 309.21 66.56C311.85 66.56 314.13 67.184 316.05 68.432C318.018 69.68 319.506 71.384 320.514 73.544C321.57 75.704 322.098 78.08 322.098 80.672V101.12C322.098 102.032 321.762 102.8 321.09 103.424C320.466 104.048 319.698 104.36 318.786 104.36C317.874 104.36 317.106 104.048 316.482 103.424C315.858 102.8 315.546 102.032 315.546 101.12V81.392C315.546 75.536 312.906 72.608 307.626 72.608C305.226 72.608 303.066 73.232 301.146 74.48C299.274 75.728 297.498 77.408 295.818 79.52V101.12C295.818 102.032 295.482 102.8 294.81 103.424C294.186 104.048 293.418 104.36 292.506 104.36ZM345.021 104.72C340.221 104.72 335.853 103.64 331.917 101.48C331.101 100.904 330.693 100.112 330.693 99.104C330.693 98.336 330.957 97.664 331.485 97.088C332.013 96.512 332.685 96.224 333.501 96.224C333.933 96.224 334.365 96.32 334.797 96.512C336.333 97.184 337.869 97.712 339.405 98.096C340.941 98.48 342.669 98.672 344.589 98.672C349.917 98.672 352.581 96.968 352.581 93.56C352.581 92.456 351.957 91.616 350.709 91.04C349.509 90.464 347.517 89.816 344.733 89.096C341.901 88.424 339.549 87.728 337.677 87.008C335.853 86.288 334.269 85.208 332.925 83.768C331.629 82.28 330.981 80.336 330.981 77.936C330.981 74.576 332.181 71.84 334.581 69.728C337.029 67.616 340.509 66.56 345.021 66.56C348.717 66.56 352.197 67.16 355.461 68.36C356.133 68.552 356.637 68.912 356.973 69.44C357.357 69.968 357.549 70.52 357.549 71.096C357.549 71.864 357.261 72.536 356.685 73.112C356.157 73.688 355.485 73.976 354.669 73.976C354.429 73.976 354.117 73.928 353.733 73.832C350.949 72.968 348.213 72.536 345.525 72.536C342.933 72.536 340.893 73.016 339.405 73.976C337.965 74.888 337.245 76.088 337.245 77.576C337.245 79.016 337.917 80.072 339.261 80.744C340.605 81.416 342.693 82.064 345.525 82.688C348.357 83.408 350.661 84.128 352.437 84.848C354.213 85.52 355.725 86.6 356.973 88.088C358.269 89.576 358.917 91.568 358.917 94.064C358.917 97.136 357.693 99.68 355.245 101.696C352.845 103.712 349.437 104.72 345.021 104.72ZM383.935 104.36C383.023 104.36 382.255 104.048 381.631 103.424C381.007 102.8 380.695 102.032 380.695 101.12V59.864H366.007C365.143 59.864 364.423 59.576 363.847 59C363.271 58.424 362.983 57.704 362.983 56.84C362.983 55.976 363.271 55.256 363.847 54.68C364.423 54.056 365.143 53.744 366.007 53.744H401.863C402.727 53.744 403.447 54.056 404.023 54.68C404.647 55.256 404.959 55.976 404.959 56.84C404.959 57.704 404.647 58.424 404.023 59C403.447 59.576 402.727 59.864 401.863 59.864H387.247V101.12C387.247 102.032 386.911 102.8 386.239 103.424C385.615 104.048 384.847 104.36 383.935 104.36ZM410.561 104.36C409.649 104.36 408.881 104.048 408.257 103.424C407.633 102.8 407.321 102.032 407.321 101.12V70.232C407.321 69.32 407.633 68.552 408.257 67.928C408.881 67.256 409.649 66.92 410.561 66.92C411.473 66.92 412.241 67.256 412.865 67.928C413.537 68.552 413.873 69.32 413.873 70.232V73.328C417.233 68.816 421.001 66.56 425.177 66.56H425.537C426.449 66.56 427.193 66.872 427.769 67.496C428.393 68.12 428.705 68.888 428.705 69.8C428.705 70.712 428.393 71.456 427.769 72.032C427.145 72.608 426.353 72.896 425.393 72.896H425.033C422.729 72.896 420.617 73.472 418.697 74.624C416.777 75.728 415.169 77.264 413.873 79.232V101.12C413.873 102.032 413.537 102.8 412.865 103.424C412.241 104.048 411.473 104.36 410.561 104.36ZM444.243 104.72C442.131 104.72 440.163 104.288 438.339 103.424C436.563 102.56 435.147 101.312 434.091 99.68C433.035 98 432.507 96.08 432.507 93.92C432.507 90.368 433.899 87.536 436.683 85.424C439.515 83.312 443.643 82.256 449.067 82.256H457.779V81.68C457.779 78.512 456.987 76.232 455.403 74.84C453.867 73.448 451.443 72.752 448.131 72.752C446.307 72.752 444.675 72.896 443.235 73.184C441.843 73.472 440.283 73.904 438.555 74.48C438.171 74.576 437.859 74.624 437.619 74.624C436.899 74.624 436.275 74.36 435.747 73.832C435.219 73.304 434.955 72.656 434.955 71.888C434.955 70.592 435.579 69.68 436.827 69.152C440.907 67.424 445.059 66.56 449.283 66.56C452.595 66.56 455.379 67.232 457.635 68.576C459.939 69.92 461.619 71.672 462.675 73.832C463.779 75.944 464.331 78.248 464.331 80.744V101.12C464.331 102.032 463.995 102.8 463.323 103.424C462.699 104.048 461.931 104.36 461.019 104.36C460.107 104.36 459.339 104.048 458.715 103.424C458.091 102.8 457.779 102.032 457.779 101.12V99.248C454.227 102.896 449.715 104.72 444.243 104.72ZM446.691 98.96C448.803 98.96 450.843 98.456 452.811 97.448C454.779 96.392 456.435 95.096 457.779 93.56V87.512H449.931C442.683 87.512 439.059 89.408 439.059 93.2C439.059 94.928 439.635 96.32 440.787 97.376C441.987 98.432 443.955 98.96 446.691 98.96ZM492.305 104.72C488.849 104.72 485.657 103.952 482.729 102.416C479.801 100.88 477.449 98.672 475.673 95.792C473.945 92.912 473.081 89.528 473.081 85.64C473.081 81.752 473.945 78.368 475.673 75.488C477.449 72.608 479.801 70.4 482.729 68.864C485.657 67.328 488.849 66.56 492.305 66.56C494.849 66.56 497.033 66.896 498.857 67.568C500.729 68.192 502.457 69.008 504.041 70.016C505.001 70.64 505.481 71.48 505.481 72.536C505.481 73.256 505.193 73.928 504.617 74.552C504.089 75.128 503.465 75.416 502.745 75.416C502.217 75.416 501.689 75.272 501.161 74.984C499.577 74.168 498.209 73.592 497.057 73.256C495.953 72.872 494.561 72.68 492.881 72.68C488.753 72.68 485.513 73.88 483.161 76.28C480.809 78.632 479.633 81.752 479.633 85.64C479.633 89.528 480.809 92.672 483.161 95.072C485.513 97.424 488.753 98.6 492.881 98.6C494.561 98.6 495.953 98.432 497.057 98.096C498.209 97.712 499.577 97.112 501.161 96.296C501.689 96.008 502.217 95.864 502.745 95.864C503.465 95.864 504.089 96.176 504.617 96.8C505.193 97.376 505.481 98.024 505.481 98.744C505.481 99.8 505.001 100.64 504.041 101.264C502.457 102.272 500.729 103.112 498.857 103.784C497.033 104.408 494.849 104.72 492.305 104.72ZM516.944 104.36C516.032 104.36 515.264 104.048 514.64 103.424C514.016 102.8 513.704 102.032 513.704 101.12V54.392C513.704 53.48 514.016 52.712 514.64 52.088C515.264 51.416 516.032 51.08 516.944 51.08C517.856 51.08 518.624 51.416 519.248 52.088C519.92 52.712 520.256 53.48 520.256 54.392V83.84L537.392 68C538.112 67.376 538.832 67.064 539.552 67.064C540.656 67.064 541.448 67.376 541.928 68C542.456 68.624 542.72 69.368 542.72 70.232C542.72 71.048 542.312 71.864 541.496 72.68L531.128 81.968L544.16 99.248C544.64 99.872 544.88 100.52 544.88 101.192C544.88 102.152 544.568 102.92 543.944 103.496C543.32 104.072 542.528 104.36 541.568 104.36C541.088 104.36 540.608 104.24 540.128 104C539.648 103.76 539.24 103.424 538.904 102.992L526.52 86.144L520.256 91.832V101.12C520.256 102.032 519.92 102.8 519.248 103.424C518.624 104.048 517.856 104.36 516.944 104.36ZM556.25 104.216C555.146 104.216 554.186 103.832 553.37 103.064C552.602 102.248 552.218 101.288 552.218 100.184V99.752C552.218 98.648 552.602 97.712 553.37 96.944C554.186 96.128 555.146 95.72 556.25 95.72H556.97C558.074 95.72 559.01 96.128 559.778 96.944C560.594 97.712 561.002 98.648 561.002 99.752V100.184C561.002 101.288 560.594 102.248 559.778 103.064C559.01 103.832 558.074 104.216 556.97 104.216H556.25ZM576.177 104.36C575.265 104.36 574.497 104.048 573.873 103.424C573.249 102.8 572.937 102.032 572.937 101.12V56.696C572.937 55.784 573.249 55.016 573.873 54.392C574.497 53.72 575.265 53.384 576.177 53.384C577.089 53.384 577.857 53.72 578.481 54.392C579.153 55.016 579.489 55.784 579.489 56.696V101.12C579.489 102.032 579.153 102.8 578.481 103.424C577.857 104.048 577.089 104.36 576.177 104.36ZM596.708 104C595.796 104 595.028 103.688 594.404 103.064C593.78 102.44 593.468 101.672 593.468 100.76V57.056C593.468 56.144 593.78 55.376 594.404 54.752C595.028 54.08 595.796 53.744 596.708 53.744H611.18C616.652 53.744 621.284 54.968 625.076 57.416C628.916 59.816 631.796 62.936 633.716 66.776C635.636 70.616 636.596 74.648 636.596 78.872C636.596 83.096 635.636 87.128 633.716 90.968C631.796 94.808 628.916 97.952 625.076 100.4C621.284 102.8 616.652 104 611.18 104H596.708ZM610.388 97.88C614.324 97.88 617.78 97.088 620.756 95.504C623.732 93.872 626.036 91.64 627.668 88.808C629.3 85.928 630.116 82.616 630.116 78.872C630.116 75.128 629.3 71.84 627.668 69.008C626.036 66.128 623.732 63.896 620.756 62.312C617.78 60.68 614.324 59.864 610.388 59.864H600.02V97.88H610.388Z" fill="white"/>
</svg>
